<svg id="SvgjsSvg1098" width="423.91249084472656" height="557.5999984741211" xmlns="http://www.w3.org/2000/svg" version="1.1" xmlns:xlink="http://www.w3.org/1999/xlink" xmlns:svgjs="http://svgjs.com/svgjs"><defs id="SvgjsDefs1099"></defs><g id="SvgjsG1100" transform="translate(112.41250610351562,24.999998092651367)"><path id="SvgjsPath1101" d="M 0 20.5C 0 -6.833333333333333 41 -6.833333333333333 41 20.5C 41 47.833333333333336 0 47.833333333333336 0 20.5Z" stroke="#ff3333" stroke-width="2" fill-opacity="1" fill="#ff3333"></path><g id="SvgjsG1102"><text id="SvgjsText1103" font-family="微软雅黑" text-anchor="middle" font-size="13px" width="9" fill="#ffffff" font-weight="400" align="middle" anchor="middle" family="微软雅黑" size="13px" weight="400" font-style="" y="10.55" transform="rotate(0)"><tspan id="SvgjsTspan1104" dy="16" x="20.5"><tspan id="SvgjsTspan1105" style="text-decoration:;">X</tspan></tspan></text></g></g><g id="SvgjsG1106" transform="translate(48.412506103515625,97.59999656677246)"><path id="SvgjsPath1107" d="M 0 0L 50 0L 50 32L 0 32Z" stroke="none" fill="none"></path><g id="SvgjsG1108"><text id="SvgjsText1109" font-family="微软雅黑" text-anchor="middle" font-size="16px" width="38" fill="#323232" font-weight="400" align="middle" anchor="middle" family="微软雅黑" size="16px" weight="400" font-style="" y="3.6" transform="rotate(0)"><tspan id="SvgjsTspan1110" dy="20" x="25"><tspan id="SvgjsTspan1111" style="text-decoration:;">X.left</tspan></tspan></text></g></g><g id="SvgjsG1112"><path id="SvgjsPath1113" d="M116.01249694824219 58.59999656677246L83.01249694824219 101.59999656677246" stroke="#323232" stroke-width="2" fill="none"></path></g><g id="SvgjsG1114" transform="translate(210.41250610351562,164.59999656677246)"><path id="SvgjsPath1115" d="M 0 0L 50 0L 50 32L 0 32Z" stroke="none" fill="none"></path><g id="SvgjsG1116"><text id="SvgjsText1117" font-family="微软雅黑" text-anchor="middle" font-size="16px" width="50" fill="#323232" font-weight="400" align="middle" anchor="middle" family="微软雅黑" size="16px" weight="400" font-style="" y="3.6" transform="rotate(0)"><tspan id="SvgjsTspan1118" dy="20" x="25"><tspan id="SvgjsTspan1119" style="text-decoration:;">Y.right</tspan></tspan></text></g></g><g id="SvgjsG1120"><path id="SvgjsPath1121" d="M149.0124969482422 58.59999656677246L176.0124969482422 97.59999656677246" stroke="#323232" stroke-width="2" fill="none"></path></g><g id="SvgjsG1122" transform="translate(169.41250610351562,93.09999656677246)"><path id="SvgjsPath1123" d="M 0 20.5C 0 -6.833333333333333 41 -6.833333333333333 41 20.5C 41 47.833333333333336 0 47.833333333333336 0 20.5Z" stroke="#000000" stroke-width="2" fill-opacity="1" fill="#000000"></path><g id="SvgjsG1124"><text id="SvgjsText1125" font-family="微软雅黑" text-anchor="middle" font-size="13px" width="8" fill="#ffffff" font-weight="400" align="middle" anchor="middle" family="微软雅黑" size="13px" weight="400" font-style="" y="10.55" transform="rotate(0)"><tspan id="SvgjsTspan1126" dy="16" x="20.5"><tspan id="SvgjsTspan1127" style="text-decoration:;">Y</tspan></tspan></text></g></g><g id="SvgjsG1128"><path id="SvgjsPath1129" d="M201.0124969482422 125.59999656677246L229.0124969482422 171.59999656677246" stroke="#323232" stroke-width="2" fill="none"></path></g><g id="SvgjsG1130" transform="translate(103.41250610351562,164.59999656677246)"><path id="SvgjsPath1131" d="M 0 0L 50 0L 50 32L 0 32Z" stroke="none" fill="none"></path><g id="SvgjsG1132"><text id="SvgjsText1133" font-family="微软雅黑" text-anchor="middle" font-size="16px" width="38" fill="#323232" font-weight="400" align="middle" anchor="middle" family="微软雅黑" size="16px" weight="400" font-style="" y="3.6" transform="rotate(0)"><tspan id="SvgjsTspan1134" dy="20" x="25"><tspan id="SvgjsTspan1135" style="text-decoration:;">Y.left</tspan></tspan></text></g></g><g id="SvgjsG1136"><path id="SvgjsPath1137" d="M175.0124969482422 125.59999656677246L136.0124969482422 170.59999656677246" stroke="#323232" stroke-width="2" fill="none"></path></g><g id="SvgjsG1138" transform="translate(206.91250610351562,25.999998092651367)"><path id="SvgjsPath1139" d="M 0 0L 93 0L 93 39L 0 39Z" stroke="none" fill="none"></path><g id="SvgjsG1140"><text id="SvgjsText1141" font-family="微软雅黑" text-anchor="middle" font-size="16px" width="32" fill="#323232" font-weight="400" align="middle" anchor="middle" family="微软雅黑" size="16px" weight="400" font-style="" y="7.1" transform="rotate(0)"><tspan id="SvgjsTspan1142" dy="20" x="46.5"><tspan id="SvgjsTspan1143" style="text-decoration:;">原来</tspan></tspan></text></g></g><g id="SvgjsG1144" transform="translate(117.41250610351562,224.99999809265137)"><path id="SvgjsPath1145" d="M 0 20.5C 0 -6.833333333333333 41 -6.833333333333333 41 20.5C 41 47.833333333333336 0 47.833333333333336 0 20.5Z" stroke="#ff3333" stroke-width="2" fill-opacity="1" fill="#ff3333"></path><g id="SvgjsG1146"><text id="SvgjsText1147" font-family="微软雅黑" text-anchor="middle" font-size="13px" width="9" fill="#ffffff" font-weight="400" align="middle" anchor="middle" family="微软雅黑" size="13px" weight="400" font-style="" y="10.55" transform="rotate(0)"><tspan id="SvgjsTspan1148" dy="16" x="20.5"><tspan id="SvgjsTspan1149" style="text-decoration:;">X</tspan></tspan></text></g></g><g id="SvgjsG1150" transform="translate(53.412506103515625,297.59999656677246)"><path id="SvgjsPath1151" d="M 0 0L 50 0L 50 32L 0 32Z" stroke="none" fill="none"></path><g id="SvgjsG1152"><text id="SvgjsText1153" font-family="微软雅黑" text-anchor="middle" font-size="16px" width="38" fill="#323232" font-weight="400" align="middle" anchor="middle" family="微软雅黑" size="16px" weight="400" font-style="" y="3.6" transform="rotate(0)"><tspan id="SvgjsTspan1154" dy="20" x="25"><tspan id="SvgjsTspan1155" style="text-decoration:;">X.left</tspan></tspan></text></g></g><g id="SvgjsG1156"><path id="SvgjsPath1157" d="M121.01249694824219 258.59999656677246L88.01249694824219 301.59999656677246" stroke="#323232" stroke-width="2" fill="none"></path></g><g id="SvgjsG1158" transform="translate(267.4125061035156,309.59999656677246)"><path id="SvgjsPath1159" d="M 0 0L 50 0L 50 32L 0 32Z" stroke="none" fill="none"></path><g id="SvgjsG1160"><text id="SvgjsText1161" font-family="微软雅黑" text-anchor="middle" font-size="16px" width="50" fill="#323232" font-weight="400" align="middle" anchor="middle" family="微软雅黑" size="16px" weight="400" font-style="" y="3.6" transform="rotate(0)"><tspan id="SvgjsTspan1162" dy="20" x="25"><tspan id="SvgjsTspan1163" style="text-decoration:;">Y.right</tspan></tspan></text></g></g><g id="SvgjsG1164"><path id="SvgjsPath1165" d="M159.0124969482422 246.59999656677246L229.41250610351562 245.49999809265137" stroke="#323232" stroke-width="2" fill="none"></path></g><g id="SvgjsG1166" transform="translate(229.41250610351562,224.99999809265137)"><path id="SvgjsPath1167" d="M 0 20.5C 0 -6.833333333333333 41 -6.833333333333333 41 20.5C 41 47.833333333333336 0 47.833333333333336 0 20.5Z" stroke="#000000" stroke-width="2" fill-opacity="1" fill="#000000"></path><g id="SvgjsG1168"><text id="SvgjsText1169" font-family="微软雅黑" text-anchor="middle" font-size="13px" width="8" fill="#ffffff" font-weight="400" align="middle" anchor="middle" family="微软雅黑" size="13px" weight="400" font-style="" y="10.55" transform="rotate(0)"><tspan id="SvgjsTspan1170" dy="16" x="20.5"><tspan id="SvgjsTspan1171" style="text-decoration:;">Y</tspan></tspan></text></g></g><g id="SvgjsG1172"><path id="SvgjsPath1173" d="M265.0124969482422 259.59999656677246L293.0124969482422 305.59999656677246" stroke="#323232" stroke-width="2" fill="none"></path></g><g id="SvgjsG1174" transform="translate(165.41250610351562,309.59999656677246)"><path id="SvgjsPath1175" d="M 0 0L 50 0L 50 32L 0 32Z" stroke="none" fill="none"></path><g id="SvgjsG1176"><text id="SvgjsText1177" font-family="微软雅黑" text-anchor="middle" font-size="16px" width="38" fill="#323232" font-weight="400" align="middle" anchor="middle" family="微软雅黑" size="16px" weight="400" font-style="" y="3.6" transform="rotate(0)"><tspan id="SvgjsTspan1178" dy="20" x="25"><tspan id="SvgjsTspan1179" style="text-decoration:;">Y.left</tspan></tspan></text></g></g><g id="SvgjsG1180"><path id="SvgjsPath1181" d="M237.0124969482422 259.59999656677246L198.0124969482422 304.59999656677246" stroke="#323232" stroke-width="2" fill="none"></path></g><g id="SvgjsG1182" transform="translate(299.9125061035156,225.99999809265137)"><path id="SvgjsPath1183" d="M 0 0L 93 0L 93 39L 0 39Z" stroke="none" fill="none"></path><g id="SvgjsG1184"><text id="SvgjsText1185" font-family="微软雅黑" text-anchor="middle" font-size="16px" width="64" fill="#323232" font-weight="400" align="middle" anchor="middle" family="微软雅黑" size="16px" weight="400" font-style="" y="7.1" transform="rotate(0)"><tspan id="SvgjsTspan1186" dy="20" x="46.5"><tspan id="SvgjsTspan1187" style="text-decoration:;">正在变换</tspan></tspan></text></g></g><g id="SvgjsG1188" transform="translate(124.41250610351562,424.99999809265137)"><path id="SvgjsPath1189" d="M 0 20.5C 0 -6.833333333333333 41 -6.833333333333333 41 20.5C 41 47.833333333333336 0 47.833333333333336 0 20.5Z" stroke="#ff3333" stroke-width="2" fill-opacity="1" fill="#ff3333"></path><g id="SvgjsG1190"><text id="SvgjsText1191" font-family="微软雅黑" text-anchor="middle" font-size="13px" width="9" fill="#ffffff" font-weight="400" align="middle" anchor="middle" family="微软雅黑" size="13px" weight="400" font-style="" y="10.55" transform="rotate(0)"><tspan id="SvgjsTspan1192" dy="16" x="20.5"><tspan id="SvgjsTspan1193" style="text-decoration:;">X</tspan></tspan></text></g></g><g id="SvgjsG1194" transform="translate(59.412506103515625,500.59999656677246)"><path id="SvgjsPath1195" d="M 0 0L 50 0L 50 32L 0 32Z" stroke="none" fill="none"></path><g id="SvgjsG1196"><text id="SvgjsText1197" font-family="微软雅黑" text-anchor="middle" font-size="16px" width="38" fill="#323232" font-weight="400" align="middle" anchor="middle" family="微软雅黑" size="16px" weight="400" font-style="" y="3.6" transform="rotate(0)"><tspan id="SvgjsTspan1198" dy="20" x="25"><tspan id="SvgjsTspan1199" style="text-decoration:;">X.left</tspan></tspan></text></g></g><g id="SvgjsG1200"><path id="SvgjsPath1201" d="M130.0124969482422 456.59999656677246L97.01249694824219 499.59999656677246" stroke="#323232" stroke-width="2" fill="none"></path></g><g id="SvgjsG1202" transform="translate(267.4125061035156,431.59999656677246)"><path id="SvgjsPath1203" d="M 0 0L 50 0L 50 32L 0 32Z" stroke="none" fill="none"></path><g id="SvgjsG1204"><text id="SvgjsText1205" font-family="微软雅黑" text-anchor="middle" font-size="16px" width="50" fill="#323232" font-weight="400" align="middle" anchor="middle" family="微软雅黑" size="16px" weight="400" font-style="" y="3.6" transform="rotate(0)"><tspan id="SvgjsTspan1206" dy="20" x="25"><tspan id="SvgjsTspan1207" style="text-decoration:;">Y.right</tspan></tspan></text></g></g><g id="SvgjsG1208"><path id="SvgjsPath1209" d="M160.54839533310442 432.59999656677246L219.41250610351562 377.49999809265137" stroke="#323232" stroke-width="2" fill="none"></path></g><g id="SvgjsG1210" transform="translate(219.41250610351562,356.99999809265137)"><path id="SvgjsPath1211" d="M 0 20.5C 0 -6.833333333333333 41 -6.833333333333333 41 20.5C 41 47.833333333333336 0 47.833333333333336 0 20.5Z" stroke="#000000" stroke-width="2" fill-opacity="1" fill="#000000"></path><g id="SvgjsG1212"><text id="SvgjsText1213" font-family="微软雅黑" text-anchor="middle" font-size="13px" width="8" fill="#ffffff" font-weight="400" align="middle" anchor="middle" family="微软雅黑" size="13px" weight="400" font-style="" y="10.55" transform="rotate(0)"><tspan id="SvgjsTspan1214" dy="16" x="20.5"><tspan id="SvgjsTspan1215" style="text-decoration:;">Y</tspan></tspan></text></g></g><g id="SvgjsG1216"><path id="SvgjsPath1217" d="M257.0124969482422 386.59999656677246L285.0124969482422 432.59999656677246" stroke="#323232" stroke-width="2" fill="none"></path></g><g id="SvgjsG1218" transform="translate(158.41250610351562,500.59999656677246)"><path id="SvgjsPath1219" d="M 0 0L 50 0L 50 32L 0 32Z" stroke="none" fill="none"></path><g id="SvgjsG1220"><text id="SvgjsText1221" font-family="微软雅黑" text-anchor="middle" font-size="16px" width="38" fill="#323232" font-weight="400" align="middle" anchor="middle" family="微软雅黑" size="16px" weight="400" font-style="" y="3.6" transform="rotate(0)"><tspan id="SvgjsTspan1222" dy="20" x="25"><tspan id="SvgjsTspan1223" style="text-decoration:;">Y.left</tspan></tspan></text></g></g><g id="SvgjsG1224"><path id="SvgjsPath1225" d="M182.0124969482422 500.59999656677246L158.36970933855565 460.8339521236535" stroke="#323232" stroke-width="2" fill="none"></path></g><g id="SvgjsG1226" transform="translate(305.9125061035156,357.99999809265137)"><path id="SvgjsPath1227" d="M 0 0L 93 0L 93 39L 0 39Z" stroke="none" fill="none"></path><g id="SvgjsG1228"><text id="SvgjsText1229" font-family="微软雅黑" text-anchor="middle" font-size="16px" width="64" fill="#323232" font-weight="400" align="middle" anchor="middle" family="微软雅黑" size="16px" weight="400" font-style="" y="7.1" transform="rotate(0)"><tspan id="SvgjsTspan1230" dy="20" x="46.5"><tspan id="SvgjsTspan1231" style="text-decoration:;">变换结束</tspan></tspan></text></g></g><g id="SvgjsG1232" transform="translate(25.012496948242188,220.5999984741211)"><path id="SvgjsPath1233" d="M 0 0L 26 0L 26 164L 0 164Z" stroke="none" fill="none"></path><g id="SvgjsG1234"><text id="SvgjsText1235" font-family="微软雅黑" text-anchor="middle" font-size="21px" width="21" fill="#323232" font-weight="400" align="middle" anchor="middle" family="微软雅黑" size="21px" weight="400" font-style="" y="53.35" transform="rotate(0)"><tspan id="SvgjsTspan1236" dy="26" x="13"><tspan id="SvgjsTspan1237" style="text-decoration:;">左</tspan></tspan><tspan id="SvgjsTspan1238" dy="26" x="13"><tspan id="SvgjsTspan1239" style="text-decoration:;">旋</tspan></tspan></text></g></g></svg>