<svg id="SvgjsSvg1006" width="423.90625" height="546.59375" xmlns="http://www.w3.org/2000/svg" version="1.1" xmlns:xlink="http://www.w3.org/1999/xlink" xmlns:svgjs="http://svgjs.com/svgjs"><defs id="SvgjsDefs1007"></defs><g id="SvgjsG1008" transform="translate(127.90625,96.0999984741211)"><path id="SvgjsPath1009" d="M 0 20.5C 0 -6.833333333333333 41 -6.833333333333333 41 20.5C 41 47.833333333333336 0 47.833333333333336 0 20.5Z" stroke="#ff3333" stroke-width="2" fill-opacity="1" fill="#ff3333"></path><g id="SvgjsG1010"><text id="SvgjsText1011" font-family="微软雅黑" text-anchor="middle" font-size="13px" width="8" fill="#ffffff" font-weight="400" align="middle" anchor="middle" family="微软雅黑" size="13px" weight="400" font-style="" y="10.55" transform="rotate(0)"><tspan id="SvgjsTspan1012" dy="16" x="20.5"><tspan id="SvgjsTspan1013" style="text-decoration:;">X</tspan></tspan></text></g></g><g id="SvgjsG1014" transform="translate(169.40625,174.5999984741211)"><path id="SvgjsPath1015" d="M 0 0L 60 0L 60 32L 0 32Z" stroke="none" fill="none"></path><g id="SvgjsG1016"><text id="SvgjsText1017" font-family="微软雅黑" text-anchor="middle" font-size="16px" width="51" fill="#323232" font-weight="400" align="middle" anchor="middle" family="微软雅黑" size="16px" weight="400" font-style="" y="3.6" transform="rotate(0)"><tspan id="SvgjsTspan1018" dy="20" x="30"><tspan id="SvgjsTspan1019" style="text-decoration:;">X.right</tspan></tspan></text></g></g><g id="SvgjsG1020"><path id="SvgjsPath1021" d="M165.18708880043758 128.02642203777003L192.40625 174.5999984741211" stroke="#323232" stroke-width="2" fill="none"></path></g><g id="SvgjsG1022" transform="translate(241.40625,100.5999984741211)"><path id="SvgjsPath1023" d="M 0 0L 50 0L 50 32L 0 32Z" stroke="none" fill="none"></path><g id="SvgjsG1024"><text id="SvgjsText1025" font-family="微软雅黑" text-anchor="middle" font-size="16px" width="50" fill="#323232" font-weight="400" align="middle" anchor="middle" family="微软雅黑" size="16px" weight="400" font-style="" y="3.6" transform="rotate(0)"><tspan id="SvgjsTspan1026" dy="20" x="25"><tspan id="SvgjsTspan1027" style="text-decoration:;">Y.right</tspan></tspan></text></g></g><g id="SvgjsG1028"><path id="SvgjsPath1029" d="M194.92115311046052 54.15853985601481L164.38100969657995 103.39046999520498" stroke="#323232" stroke-width="2" fill="none"></path></g><g id="SvgjsG1030" transform="translate(192.40625,25)"><path id="SvgjsPath1031" d="M 0 20.5C 0 -6.833333333333333 41 -6.833333333333333 41 20.5C 41 47.833333333333336 0 47.833333333333336 0 20.5Z" stroke="#000000" stroke-width="2" fill-opacity="1" fill="#000000"></path><g id="SvgjsG1032"><text id="SvgjsText1033" font-family="微软雅黑" text-anchor="middle" font-size="13px" width="8" fill="#ffffff" font-weight="400" align="middle" anchor="middle" family="微软雅黑" size="13px" weight="400" font-style="" y="10.55" transform="rotate(0)"><tspan id="SvgjsTspan1034" dy="16" x="20.5"><tspan id="SvgjsTspan1035" style="text-decoration:;">Y</tspan></tspan></text></g></g><g id="SvgjsG1036"><path id="SvgjsPath1037" d="M229.00624084472656 52.599998474121094L257.00624084472656 98.5999984741211" stroke="#323232" stroke-width="2" fill="none"></path></g><g id="SvgjsG1038" transform="translate(67.40625,174.5999984741211)"><path id="SvgjsPath1039" d="M 0 0L 50 0L 50 32L 0 32Z" stroke="none" fill="none"></path><g id="SvgjsG1040"><text id="SvgjsText1041" font-family="微软雅黑" text-anchor="middle" font-size="16px" width="39" fill="#323232" font-weight="400" align="middle" anchor="middle" family="微软雅黑" size="16px" weight="400" font-style="" y="3.6" transform="rotate(0)"><tspan id="SvgjsTspan1042" dy="20" x="25"><tspan id="SvgjsTspan1043" style="text-decoration:;">X.left</tspan></tspan></text></g></g><g id="SvgjsG1044"><path id="SvgjsPath1045" d="M135.00624084472656 129.5999984741211L96.00624084472656 174.5999984741211" stroke="#323232" stroke-width="2" fill="none"></path></g><g id="SvgjsG1046" transform="translate(226.90625,26)"><path id="SvgjsPath1047" d="M 0 0L 93 0L 93 39L 0 39Z" stroke="none" fill="none"></path><g id="SvgjsG1048"><text id="SvgjsText1049" font-family="微软雅黑" text-anchor="middle" font-size="16px" width="32" fill="#323232" font-weight="400" align="middle" anchor="middle" family="微软雅黑" size="16px" weight="400" font-style="" y="7.1" transform="rotate(0)"><tspan id="SvgjsTspan1050" dy="20" x="46.5"><tspan id="SvgjsTspan1051" style="text-decoration:;">原来</tspan></tspan></text></g></g><g id="SvgjsG1052" transform="translate(117.40625,225)"><path id="SvgjsPath1053" d="M 0 20.5C 0 -6.833333333333333 41 -6.833333333333333 41 20.5C 41 47.833333333333336 0 47.833333333333336 0 20.5Z" stroke="#ff3333" stroke-width="2" fill-opacity="1" fill="#ff3333"></path><g id="SvgjsG1054"><text id="SvgjsText1055" font-family="微软雅黑" text-anchor="middle" font-size="13px" width="8" fill="#ffffff" font-weight="400" align="middle" anchor="middle" family="微软雅黑" size="13px" weight="400" font-style="" y="10.55" transform="rotate(0)"><tspan id="SvgjsTspan1056" dy="16" x="20.5"><tspan id="SvgjsTspan1057" style="text-decoration:;">X</tspan></tspan></text></g></g><g id="SvgjsG1058" transform="translate(53.40625,297.5999984741211)"><path id="SvgjsPath1059" d="M 0 0L 50 0L 50 32L 0 32Z" stroke="none" fill="none"></path><g id="SvgjsG1060"><text id="SvgjsText1061" font-family="微软雅黑" text-anchor="middle" font-size="16px" width="39" fill="#323232" font-weight="400" align="middle" anchor="middle" family="微软雅黑" size="16px" weight="400" font-style="" y="3.6" transform="rotate(0)"><tspan id="SvgjsTspan1062" dy="20" x="25"><tspan id="SvgjsTspan1063" style="text-decoration:;">X.left</tspan></tspan></text></g></g><g id="SvgjsG1064"><path id="SvgjsPath1065" d="M121.00624084472656 258.5999984741211L88.00624084472656 301.5999984741211" stroke="#323232" stroke-width="2" fill="none"></path></g><g id="SvgjsG1066" transform="translate(276.40625,304.5999984741211)"><path id="SvgjsPath1067" d="M 0 0L 50 0L 50 32L 0 32Z" stroke="none" fill="none"></path><g id="SvgjsG1068"><text id="SvgjsText1069" font-family="微软雅黑" text-anchor="middle" font-size="16px" width="50" fill="#323232" font-weight="400" align="middle" anchor="middle" family="微软雅黑" size="16px" weight="400" font-style="" y="3.6" transform="rotate(0)"><tspan id="SvgjsTspan1070" dy="20" x="25"><tspan id="SvgjsTspan1071" style="text-decoration:;">Y.right</tspan></tspan></text></g></g><g id="SvgjsG1072"><path id="SvgjsPath1073" d="M159.00624084472656 246.5999984741211L229.40625 245.5" stroke="#323232" stroke-width="2" fill="none"></path></g><g id="SvgjsG1074" transform="translate(229.40625,225)"><path id="SvgjsPath1075" d="M 0 20.5C 0 -6.833333333333333 41 -6.833333333333333 41 20.5C 41 47.833333333333336 0 47.833333333333336 0 20.5Z" stroke="#000000" stroke-width="2" fill-opacity="1" fill="#000000"></path><g id="SvgjsG1076"><text id="SvgjsText1077" font-family="微软雅黑" text-anchor="middle" font-size="13px" width="8" fill="#ffffff" font-weight="400" align="middle" anchor="middle" family="微软雅黑" size="13px" weight="400" font-style="" y="10.55" transform="rotate(0)"><tspan id="SvgjsTspan1078" dy="16" x="20.5"><tspan id="SvgjsTspan1079" style="text-decoration:;">Y</tspan></tspan></text></g></g><g id="SvgjsG1080"><path id="SvgjsPath1081" d="M265.00624084472656 259.5999984741211L293.00624084472656 305.5999984741211" stroke="#323232" stroke-width="2" fill="none"></path></g><g id="SvgjsG1082" transform="translate(158.40625,301.5999984741211)"><path id="SvgjsPath1083" d="M 0 0L 61 0L 61 32L 0 32Z" stroke="none" fill="none"></path><g id="SvgjsG1084"><text id="SvgjsText1085" font-family="微软雅黑" text-anchor="middle" font-size="16px" width="51" fill="#323232" font-weight="400" align="middle" anchor="middle" family="微软雅黑" size="16px" weight="400" font-style="" y="3.6" transform="rotate(0)"><tspan id="SvgjsTspan1086" dy="20" x="30.5"><tspan id="SvgjsTspan1087" style="text-decoration:;">X.right</tspan></tspan></text></g></g><g id="SvgjsG1088"><path id="SvgjsPath1089" d="M154.7296326675706 256.3056927287169L182.00624084472656 303.5999984741211" stroke="#323232" stroke-width="2" fill="none"></path></g><g id="SvgjsG1090" transform="translate(299.90625,226)"><path id="SvgjsPath1091" d="M 0 0L 93 0L 93 39L 0 39Z" stroke="none" fill="none"></path><g id="SvgjsG1092"><text id="SvgjsText1093" font-family="微软雅黑" text-anchor="middle" font-size="16px" width="64" fill="#323232" font-weight="400" align="middle" anchor="middle" family="微软雅黑" size="16px" weight="400" font-style="" y="7.1" transform="rotate(0)"><tspan id="SvgjsTspan1094" dy="20" x="46.5"><tspan id="SvgjsTspan1095" style="text-decoration:;">正在变换</tspan></tspan></text></g></g><g id="SvgjsG1096" transform="translate(121.40625,357)"><path id="SvgjsPath1097" d="M 0 20.5C 0 -6.833333333333333 41 -6.833333333333333 41 20.5C 41 47.833333333333336 0 47.833333333333336 0 20.5Z" stroke="#ff3333" stroke-width="2" fill-opacity="1" fill="#ff3333"></path><g id="SvgjsG1098"><text id="SvgjsText1099" font-family="微软雅黑" text-anchor="middle" font-size="13px" width="8" fill="#ffffff" font-weight="400" align="middle" anchor="middle" family="微软雅黑" size="13px" weight="400" font-style="" y="10.55" transform="rotate(0)"><tspan id="SvgjsTspan1100" dy="16" x="20.5"><tspan id="SvgjsTspan1101" style="text-decoration:;">X</tspan></tspan></text></g></g><g id="SvgjsG1102" transform="translate(51.00624084472656,428.6000003814697)"><path id="SvgjsPath1103" d="M 0 0L 50 0L 50 32L 0 32Z" stroke="none" fill="none"></path><g id="SvgjsG1104"><text id="SvgjsText1105" font-family="微软雅黑" text-anchor="middle" font-size="16px" width="39" fill="#323232" font-weight="400" align="middle" anchor="middle" family="微软雅黑" size="16px" weight="400" font-style="" y="3.6" transform="rotate(0)"><tspan id="SvgjsTspan1106" dy="20" x="25"><tspan id="SvgjsTspan1107" style="text-decoration:;">X.left</tspan></tspan></text></g></g><g id="SvgjsG1108"><path id="SvgjsPath1109" d="M121.60623168945312 384.6000003814697L88.60623168945312 427.6000003814697" stroke="#323232" stroke-width="2" fill="none"></path></g><g id="SvgjsG1110" transform="translate(233.40625,489.5999984741211)"><path id="SvgjsPath1111" d="M 0 0L 50 0L 50 32L 0 32Z" stroke="none" fill="none"></path><g id="SvgjsG1112"><text id="SvgjsText1113" font-family="微软雅黑" text-anchor="middle" font-size="16px" width="50" fill="#323232" font-weight="400" align="middle" anchor="middle" family="微软雅黑" size="16px" weight="400" font-style="" y="3.6" transform="rotate(0)"><tspan id="SvgjsTspan1114" dy="20" x="25"><tspan id="SvgjsTspan1115" style="text-decoration:;">Y.right</tspan></tspan></text></g></g><g id="SvgjsG1116" transform="translate(185.90625,415.6000003814697)"><path id="SvgjsPath1117" d="M 0 20.5C 0 -6.833333333333333 41 -6.833333333333333 41 20.5C 41 47.833333333333336 0 47.833333333333336 0 20.5Z" stroke="#000000" stroke-width="2" fill-opacity="1" fill="#000000"></path><g id="SvgjsG1118"><text id="SvgjsText1119" font-family="微软雅黑" text-anchor="middle" font-size="13px" width="8" fill="#ffffff" font-weight="400" align="middle" anchor="middle" family="微软雅黑" size="13px" weight="400" font-style="" y="10.55" transform="rotate(0)"><tspan id="SvgjsTspan1120" dy="16" x="20.5"><tspan id="SvgjsTspan1121" style="text-decoration:;">Y</tspan></tspan></text></g></g><g id="SvgjsG1122"><path id="SvgjsPath1123" d="M224.00624084472656 445.5999984741211L252.00624084472656 491.5999984741211" stroke="#323232" stroke-width="2" fill="none"></path></g><g id="SvgjsG1124" transform="translate(121.40625,489.5999984741211)"><path id="SvgjsPath1125" d="M 0 0L 50 0L 50 32L 0 32Z" stroke="none" fill="none"></path><g id="SvgjsG1126"><text id="SvgjsText1127" font-family="微软雅黑" text-anchor="middle" font-size="16px" width="38" fill="#323232" font-weight="400" align="middle" anchor="middle" family="微软雅黑" size="16px" weight="400" font-style="" y="3.6" transform="rotate(0)"><tspan id="SvgjsTspan1128" dy="20" x="25"><tspan id="SvgjsTspan1129" style="text-decoration:;">Y.left</tspan></tspan></text></g></g><g id="SvgjsG1130"><path id="SvgjsPath1131" d="M166.00624084472656 490.6000003814697L192.07981728107762 448.7808483371807" stroke="#323232" stroke-width="2" fill="none"></path></g><g id="SvgjsG1132" transform="translate(305.90625,358)"><path id="SvgjsPath1133" d="M 0 0L 93 0L 93 39L 0 39Z" stroke="none" fill="none"></path><g id="SvgjsG1134"><text id="SvgjsText1135" font-family="微软雅黑" text-anchor="middle" font-size="16px" width="64" fill="#323232" font-weight="400" align="middle" anchor="middle" family="微软雅黑" size="16px" weight="400" font-style="" y="7.1" transform="rotate(0)"><tspan id="SvgjsTspan1136" dy="20" x="46.5"><tspan id="SvgjsTspan1137" style="text-decoration:;">变换结束</tspan></tspan></text></g></g><g id="SvgjsG1138" transform="translate(25.006240844726562,220.60000038146973)"><path id="SvgjsPath1139" d="M 0 0L 26 0L 26 164L 0 164Z" stroke="none" fill="none"></path><g id="SvgjsG1140"><text id="SvgjsText1141" font-family="微软雅黑" text-anchor="middle" font-size="21px" width="21" fill="#323232" font-weight="400" align="middle" anchor="middle" family="微软雅黑" size="21px" weight="400" font-style="" y="52.85" transform="rotate(0)"><tspan id="SvgjsTspan1142" dy="26" x="13"><tspan id="SvgjsTspan1143" style="text-decoration:;">右</tspan></tspan><tspan id="SvgjsTspan1144" dy="26" x="13"><tspan id="SvgjsTspan1145" style="text-decoration:;">旋</tspan></tspan></text></g></g><g id="SvgjsG1146"><path id="SvgjsPath1147" d="M159.2401964016076 388.9572127717832L188.20470394865612 426.3101010980981" stroke="#323232" stroke-width="2" fill="none"></path></g></svg>